<?xml version="1.0" standalone="no"?>
<!DOCTYPE svg PUBLIC "-//W3C//DTD SVG 20010904//EN"
 "http://www.w3.org/TR/2001/REC-SVG-20010904/DTD/svg10.dtd">
<svg version="1.0" xmlns="http://www.w3.org/2000/svg"
 width="2819.000000pt" height="2819.000000pt" viewBox="0 0 2819.000000 2819.000000"
 preserveAspectRatio="xMidYMid meet">
<metadata>
Created by potrace 1.11, written by Peter Selinger 2001-2013
</metadata>
<g transform="translate(0.000000,2819.000000) scale(0.100000,-0.100000)"
fill="#000000" stroke="none">
<path d="M15397 25250 c-49 -9 -86 -37 -114 -86 -20 -34 -23 -52 -21 -140 1
-110 -13 -152 -59 -173 -35 -16 -50 -14 -73 11 -25 28 -26 68 0 147 11 34 18
75 16 91 -4 38 -44 96 -74 109 -62 29 -147 0 -178 -60 -19 -37 -20 -71 -5
-156 17 -93 2 -150 -45 -172 -38 -17 -87 4 -95 42 -1 4 -2 10 -3 15 -1 4 -5
21 -10 38 -24 103 -154 103 -225 1 -91 -133 -78 -322 34 -498 98 -151 225
-248 375 -284 75 -19 376 -10 413 11 7 4 -13 -19 -43 -52 -88 -93 -147 -203
-189 -346 -16 -57 -18 -58 -106 -114 -199 -124 -448 -347 -598 -534 -145 -180
-291 -422 -380 -628 -40 -93 -92 -253 -122 -372 -26 -102 -45 -136 -73 -125
-29 11 -168 -32 -312 -97 -86 -39 -212 -116 -311 -190 -83 -61 -121 -93 -216
-181 l-30 -27 -84 19 c-46 11 -97 23 -114 26 -126 22 -398 109 -588 187 -376
153 -692 393 -886 673 -19 28 -37 52 -41 55 -3 3 -17 23 -32 45 -14 22 -54 81
-89 130 -70 101 -358 533 -406 610 -61 97 -168 270 -178 287 -5 10 -52 89
-104 175 -52 87 -146 246 -209 353 -147 249 -184 304 -246 363 -45 43 -153
117 -170 117 -3 0 -25 8 -49 19 -93 41 -224 79 -342 97 -22 3 -76 17 -120 31
-180 54 -187 55 -285 50 -114 -5 -197 -31 -295 -92 -84 -52 -156 -119 -216
-200 -24 -33 -57 -73 -74 -88 -69 -65 -218 -151 -540 -313 -187 -93 -386 -199
-443 -235 -171 -106 -345 -292 -392 -416 -11 -30 -27 -98 -36 -151 -8 -53 -17
-108 -20 -122 -3 -14 -7 -55 -11 -91 -6 -80 19 -151 61 -171 15 -6 26 -20 27
-32 0 -12 2 -28 4 -36 2 -8 6 -26 9 -39 12 -55 102 -133 168 -147 13 -2 37 -7
53 -10 84 -16 253 0 470 44 88 18 260 21 385 8 25 -3 135 -8 245 -11 187 -5
206 -3 300 19 91 22 138 30 157 27 4 -1 2 -16 -3 -33 -28 -97 -61 -285 -64
-368 -13 -288 116 -397 385 -324 98 26 135 41 242 95 l78 39 15 -37 c50 -118
185 -549 211 -672 3 -14 7 -28 10 -33 3 -4 1 -8 -4 -8 -13 0 -191 -175 -244
-240 -94 -116 -160 -218 -230 -357 -22 -46 -46 -83 -52 -83 -6 0 -76 12 -156
26 -80 14 -158 27 -175 29 -16 2 -84 13 -150 24 -66 11 -140 23 -165 26 -25 3
-56 8 -70 10 -34 6 -93 14 -143 20 -23 3 -53 7 -66 10 -13 2 -49 7 -80 11 -31
3 -58 8 -61 9 -3 2 -41 6 -85 10 -44 4 -82 9 -85 10 -3 2 -33 6 -65 10 -33 3
-76 8 -95 10 -19 3 -62 7 -95 11 -33 3 -71 7 -85 9 -14 2 -56 7 -95 10 -38 4
-81 8 -95 10 -14 2 -63 6 -110 10 -47 4 -96 8 -110 10 -14 2 -61 7 -105 10
-44 3 -100 8 -125 10 -96 9 -232 19 -400 29 -58 4 -123 9 -145 11 -22 2 -85 7
-140 10 -55 4 -116 8 -135 10 -19 2 -75 7 -125 10 -49 4 -106 8 -125 10 -19 2
-39 4 -43 4 -5 1 10 22 33 48 121 137 235 390 284 624 15 75 24 249 12 267
-11 18 -200 90 -277 106 -92 19 -219 16 -308 -8 -148 -40 -282 -124 -491 -311
-104 -92 -120 -105 -169 -140 l-51 -37 -10 27 c-5 14 -10 34 -10 43 0 9 -18
70 -40 135 -22 66 -40 121 -40 123 0 2 6 4 13 4 28 0 154 72 198 113 95 89
149 174 188 301 30 96 36 151 36 306 -1 215 -24 362 -60 386 -25 16 -52 10
-59 -14 -3 -10 -7 -49 -10 -89 -7 -82 -13 -129 -28 -193 -5 -25 -11 -52 -13
-60 -21 -102 -88 -237 -147 -298 -77 -80 -152 -98 -304 -71 -58 10 -71 17
-108 54 -208 215 -549 346 -879 339 -194 -4 -340 -36 -489 -109 -67 -33 -173
-101 -201 -130 -14 -13 -24 -13 -102 0 -112 20 -192 47 -285 97 -195 104 -367
301 -464 531 -16 37 -32 67 -35 68 -3 0 -14 2 -23 4 -32 6 -39 -19 -34 -121
13 -258 159 -562 366 -764 85 -83 125 -113 267 -205 1 0 -15 -41 -36 -91 -21
-49 -44 -109 -51 -134 -22 -74 -28 -76 -101 -29 -57 37 -147 111 -234 191
-213 197 -410 292 -605 292 -152 0 -362 -73 -376 -130 -7 -27 1 -166 12 -219
42 -206 141 -432 247 -569 145 -189 348 -283 612 -284 l110 0 0 -119 c0 -112
2 -121 32 -183 17 -36 35 -81 38 -101 5 -29 11 -36 25 -32 15 4 19 -6 30 -64
30 -171 32 -430 6 -581 -31 -172 -24 -159 -162 -297 -46 -46 -63 -71 -68 -101
-5 -21 -18 -71 -31 -110 -65 -200 -49 -416 46 -607 16 -33 26 -63 23 -69 -3
-5 2 -12 12 -14 11 -3 27 -22 37 -42 20 -41 71 -99 120 -136 47 -35 206 -113
258 -126 192 -49 405 -56 649 -24 98 13 86 25 146 -136 30 -80 108 -287 173
-460 118 -312 119 -316 125 -420 4 -58 8 -116 10 -130 2 -14 7 -56 10 -95 4
-38 9 -77 11 -85 2 -8 7 -35 10 -60 58 -434 193 -930 355 -1300 53 -122 167
-347 214 -423 33 -53 148 -230 156 -241 6 -6 43 -54 84 -107 l75 -96 -24 -104
c-13 -57 -26 -120 -29 -139 -18 -127 -25 -182 -32 -255 -3 -33 -8 -63 -12 -66
-4 -4 -50 -12 -102 -19 -52 -7 -102 -14 -111 -15 -27 -5 -88 -15 -194 -30
-158 -24 -166 -25 -235 -36 -36 -6 -83 -13 -105 -15 -22 -3 -55 -9 -72 -14
-36 -9 -42 -4 -49 38 -2 15 -6 41 -9 57 -2 17 -7 48 -11 70 -3 22 -16 105 -29
185 -14 80 -31 190 -39 245 -17 113 -26 170 -31 194 -1 9 -8 52 -15 96 -7 44
-14 89 -16 100 -2 10 -6 37 -9 60 -3 22 -15 96 -26 165 -11 69 -22 136 -24
150 -3 14 -7 43 -10 65 -4 22 -15 92 -25 155 -10 63 -21 131 -24 150 -46 306
-61 376 -94 415 -18 21 -59 57 -132 115 -24 19 -72 58 -106 85 -34 28 -91 72
-126 100 -35 27 -68 54 -74 60 -6 5 -23 19 -38 30 -16 11 -33 25 -40 30 -17
16 -416 329 -566 444 -74 58 -155 121 -180 141 -25 20 -61 47 -80 60 -19 13
-37 27 -40 30 -17 23 -215 160 -251 175 -57 23 -170 30 -241 16 -79 -17 -165
-62 -214 -113 -33 -34 -287 -429 -374 -582 -9 -17 -58 -96 -107 -176 -188
-304 -568 -947 -580 -980 -18 -52 -16 -103 12 -235 14 -66 34 -163 45 -215 10
-52 37 -183 60 -290 79 -377 111 -535 115 -555 3 -18 91 -442 101 -490 3 -11
16 -74 29 -140 13 -66 40 -196 60 -290 20 -93 39 -181 41 -195 3 -14 23 -113
45 -220 23 -107 43 -206 46 -220 4 -22 28 -134 39 -185 2 -11 7 -36 10 -55 3
-19 9 -51 14 -70 9 -37 49 -227 57 -270 2 -14 19 -97 38 -185 31 -148 80 -386
91 -445 3 -14 18 -86 34 -160 16 -74 31 -146 34 -160 2 -14 14 -70 25 -125 12
-55 24 -113 27 -130 3 -16 18 -91 34 -165 16 -74 31 -146 34 -160 5 -27 85
-413 92 -445 3 -11 7 -31 10 -45 2 -14 9 -45 14 -70 5 -25 12 -56 14 -70 2
-14 14 -68 25 -120 12 -52 24 -110 27 -129 3 -18 7 -41 9 -50 2 -9 23 -106 45
-216 23 -110 43 -207 45 -215 2 -8 13 -62 25 -120 11 -58 23 -112 25 -120 2
-8 15 -71 29 -140 14 -69 36 -177 50 -240 14 -63 27 -128 30 -145 10 -51 15
-78 26 -125 5 -25 12 -56 14 -70 2 -14 11 -56 20 -95 9 -38 18 -81 20 -95 2
-14 14 -70 25 -126 12 -55 23 -109 25 -120 2 -10 18 -86 36 -169 17 -82 51
-247 75 -365 24 -118 62 -303 85 -410 22 -107 59 -283 81 -390 22 -107 42
-202 44 -210 1 -8 17 -85 35 -170 40 -199 38 -189 44 -208 3 -9 8 -33 10 -52
3 -19 19 -100 36 -180 17 -80 40 -190 51 -245 12 -55 25 -120 30 -145 5 -25
12 -58 15 -75 3 -16 9 -46 14 -65 5 -19 27 -127 50 -240 23 -113 43 -212 45
-220 2 -8 29 -136 60 -285 31 -148 58 -279 60 -290 4 -24 16 -81 50 -240 14
-66 28 -133 31 -150 3 -16 11 -58 19 -93 8 -34 17 -74 20 -90 5 -30 22 -116
29 -147 15 -73 38 -184 42 -205 2 -14 9 -45 14 -70 6 -25 12 -55 15 -68 2 -13
6 -31 9 -40 3 -9 8 -33 11 -52 3 -19 8 -46 10 -60 3 -14 7 -36 10 -49 9 -46
47 -110 87 -146 90 -81 170 -92 380 -51 68 14 137 28 153 31 29 6 99 19 160
30 17 3 41 8 55 11 14 3 36 8 50 10 14 3 86 16 160 30 74 14 146 28 160 30 14
2 36 7 50 10 14 3 36 7 50 9 32 5 74 12 180 31 105 20 119 22 150 29 14 2 41
7 60 10 38 6 149 26 165 29 6 2 33 6 60 10 28 4 86 14 130 22 44 7 94 16 110
19 17 2 39 7 51 9 12 2 45 7 73 11 187 24 288 98 321 236 11 44 7 159 -5 179
-2 3 -6 26 -9 51 -3 24 -8 53 -10 64 -2 11 -7 40 -10 65 -3 25 -8 54 -10 65
-2 11 -7 42 -10 68 -4 27 -9 57 -11 67 -2 9 -6 35 -10 56 -3 22 -8 53 -11 69
-3 17 -7 44 -9 60 -2 17 -10 71 -19 120 -8 50 -17 106 -20 125 -10 65 -37 235
-42 260 -2 14 -7 44 -10 66 -2 23 -7 53 -9 65 -3 13 -8 44 -11 68 -3 25 -7 47
-9 50 -2 3 -6 30 -10 60 -4 30 -9 63 -11 75 -2 12 -7 41 -10 66 -3 25 -9 60
-14 77 -6 23 -5 33 3 34 7 0 19 2 27 4 8 1 33 6 55 9 23 4 50 8 60 10 11 2 43
7 70 10 53 7 217 33 275 43 19 3 44 7 55 8 11 1 38 5 60 9 22 3 58 8 80 11 22
3 57 8 78 11 34 5 37 4 38 -18 0 -12 2 -30 4 -38 3 -18 8 -49 34 -215 12 -71
23 -141 25 -155 4 -24 9 -51 22 -138 23 -159 109 -379 203 -522 232 -355 587
-575 1021 -634 51 -7 272 -8 310 -2 22 4 62 10 155 22 17 2 46 6 65 9 19 2 58
8 85 11 28 3 57 7 65 9 8 1 44 6 80 10 36 4 72 9 81 10 9 2 40 6 70 10 30 3
61 8 69 10 8 2 51 7 95 11 44 3 82 8 85 9 3 2 37 6 75 10 39 3 81 8 95 10 31
6 98 14 165 20 28 2 61 7 75 9 14 3 56 8 93 11 37 4 77 8 88 10 10 2 56 7 102
11 45 3 85 8 88 10 3 1 45 6 95 9 49 4 96 8 104 10 8 2 49 6 90 10 41 3 86 8
100 10 14 2 59 6 100 10 41 3 93 8 115 10 93 9 239 22 340 30 39 3 95 8 125
10 121 11 244 21 363 30 143 11 195 14 282 20 50 3 117 8 150 10 33 3 101 7
150 10 50 3 122 7 160 10 39 3 120 8 180 10 61 3 148 8 195 10 47 3 135 7 195
10 61 3 155 8 210 10 55 3 174 8 265 10 91 3 208 7 260 10 308 14 746 20 1535
20 791 0 1120 -4 1555 -20 321 -11 593 -22 725 -29 39 -2 138 -7 220 -11 83
-4 166 -8 185 -10 19 -2 96 -6 170 -10 74 -4 151 -8 170 -10 19 -2 82 -6 140
-10 58 -3 125 -8 150 -10 25 -2 90 -7 145 -10 55 -3 116 -8 135 -10 19 -2 73
-7 120 -10 47 -3 105 -8 130 -10 25 -3 79 -7 120 -10 72 -6 94 -7 225 -19 33
-3 89 -8 125 -11 36 -3 83 -8 105 -11 22 -3 65 -7 95 -9 76 -5 179 -15 217
-20 18 -3 63 -7 100 -10 37 -3 84 -8 103 -10 59 -8 147 -17 275 -30 33 -4 71
-8 85 -10 14 -2 57 -7 95 -11 39 -3 78 -8 87 -9 9 -2 48 -6 85 -10 37 -3 77
-8 89 -10 11 -3 43 -7 70 -10 70 -7 135 -15 164 -20 14 -2 52 -6 85 -10 103
-11 133 -15 315 -41 81 -11 239 -33 295 -41 76 -10 363 -10 435 0 30 4 73 12
95 18 22 6 49 13 59 15 82 16 284 102 364 155 24 16 45 29 48 29 12 0 135 99
203 164 152 146 290 369 356 571 26 81 73 323 90 465 1 8 5 33 9 55 24 137 34
202 35 233 1 9 11 12 34 8 17 -2 68 -10 112 -16 44 -6 91 -13 105 -15 14 -3
86 -13 160 -24 74 -11 149 -23 165 -25 32 -6 142 -23 189 -31 16 -2 30 -6 33
-9 4 -3 -30 -238 -53 -366 -2 -14 -7 -41 -10 -60 -3 -19 -7 -46 -10 -60 -2
-14 -7 -45 -10 -70 -3 -25 -8 -54 -10 -65 -4 -22 -29 -174 -39 -240 -3 -22
-12 -78 -20 -125 -8 -47 -17 -103 -20 -125 -2 -22 -7 -51 -9 -65 -13 -75 -39
-228 -41 -245 -10 -78 -17 -123 -26 -168 -6 -29 -12 -88 -14 -132 -4 -73 -1
-86 26 -142 41 -86 115 -145 199 -159 14 -2 36 -7 50 -9 14 -3 39 -8 55 -10
17 -3 41 -8 55 -10 14 -3 43 -7 65 -10 39 -6 78 -13 195 -34 30 -6 71 -12 90
-15 19 -3 44 -7 55 -10 11 -2 40 -7 65 -11 25 -4 54 -9 65 -11 11 -2 83 -15
160 -29 77 -14 151 -27 165 -30 14 -3 63 -12 110 -20 87 -15 99 -18 185 -35
53 -10 107 -20 140 -25 17 -3 310 -61 355 -70 306 -64 387 -60 484 26 58 50
82 107 111 259 3 14 9 48 15 76 6 28 13 64 16 80 3 16 7 37 10 46 3 9 7 27 9
40 5 24 32 158 39 193 27 125 47 221 50 239 2 11 12 57 21 101 22 104 24 115
30 145 2 14 22 108 44 210 21 102 42 203 46 225 5 22 9 45 11 50 4 16 105 508
110 535 3 14 22 109 44 211 22 103 42 202 45 220 3 19 8 41 10 49 5 18 83 391
91 435 3 17 9 46 14 65 5 19 11 52 14 74 4 21 8 41 10 45 2 3 7 23 10 43 3 21
10 57 15 80 13 58 21 97 27 133 3 17 12 57 19 90 8 33 16 71 19 85 2 14 20
104 40 200 21 96 50 238 66 315 16 77 31 151 34 165 3 14 14 66 24 115 11 50
23 106 26 125 3 19 15 78 27 130 11 52 23 106 25 120 4 21 10 52 20 95 1 6 5
24 8 40 3 17 22 107 42 200 19 94 38 181 40 195 5 25 47 233 85 410 10 52 21
104 23 115 2 11 22 108 44 215 23 107 43 206 46 220 6 29 22 104 30 140 3 14
10 50 16 80 6 30 12 64 15 75 15 65 113 535 121 585 3 14 7 31 10 39 2 8 7 30
10 50 3 20 17 88 30 151 26 122 42 199 50 240 3 14 23 112 45 219 23 107 43
203 45 215 2 12 6 30 8 41 3 11 17 79 31 150 15 72 28 135 29 140 1 6 5 24 9
40 4 17 9 41 11 55 9 48 25 125 46 224 12 54 23 106 25 115 34 176 105 517
130 626 8 33 16 77 19 97 3 21 11 59 17 85 6 27 12 57 15 68 2 11 10 52 18 90
51 241 66 313 70 335 5 27 81 394 121 585 14 66 27 129 29 140 2 11 14 67 26
125 12 58 24 114 26 125 2 11 6 31 9 45 3 14 7 34 9 45 3 11 18 88 35 170 17
83 34 163 37 179 3 16 6 32 8 35 2 3 7 22 10 41 3 19 23 122 46 228 22 107 42
203 44 215 3 12 11 54 20 92 8 39 17 82 20 95 2 14 11 59 20 100 8 41 18 89
21 105 3 17 11 57 19 89 19 78 15 161 -9 211 -20 42 -53 96 -391 658 -244 407
-222 370 -349 575 -55 89 -104 171 -110 182 -5 11 -13 20 -17 20 -5 0 -8 4 -8
9 0 22 -154 252 -190 285 -76 68 -175 104 -291 104 -104 0 -175 -26 -274 -101
-186 -141 -287 -219 -303 -232 -9 -8 -71 -56 -137 -106 -66 -51 -203 -158
-305 -238 -102 -80 -189 -149 -195 -153 -5 -4 -40 -32 -77 -63 -36 -30 -69
-55 -73 -55 -3 0 -16 -9 -28 -21 -12 -11 -83 -69 -157 -127 -74 -59 -142 -114
-151 -122 -8 -8 -27 -24 -41 -35 -58 -46 -77 -94 -104 -256 -32 -199 -32 -197
-39 -244 -3 -23 -7 -50 -9 -60 -3 -18 -10 -62 -22 -137 -6 -43 -14 -88 -24
-148 -5 -30 -12 -72 -15 -92 -3 -21 -7 -55 -10 -75 -3 -21 -12 -76 -20 -123
-8 -47 -16 -101 -19 -120 -2 -19 -7 -46 -10 -60 -3 -14 -8 -47 -11 -74 -3 -27
-8 -52 -9 -55 -2 -3 -6 -28 -10 -56 -3 -27 -8 -59 -10 -70 -7 -35 -17 -99 -21
-135 -3 -19 -7 -46 -10 -60 -2 -14 -7 -38 -9 -55 -6 -40 -18 -116 -21 -135
-19 -106 -33 -201 -34 -228 -1 -7 -5 -11 -9 -8 -4 2 -32 7 -62 11 -29 3 -56 8
-60 10 -4 2 -35 7 -71 11 -35 3 -67 8 -71 11 -4 2 -29 6 -55 8 -26 3 -70 10
-98 15 -27 5 -70 12 -95 15 -25 3 -56 7 -70 10 -14 2 -43 7 -65 10 -23 3 -50
7 -61 9 -39 8 -139 20 -146 18 -5 -1 -9 10 -9 26 -2 29 -2 35 -13 122 -16 139
-41 277 -66 375 -153 589 -422 1063 -878 1545 -39 41 -72 80 -72 86 0 6 9 48
20 92 19 74 55 242 65 302 15 90 45 307 50 370 3 41 8 91 10 110 3 19 7 103
10 186 l5 151 428 714 c393 655 519 860 576 930 12 14 35 43 51 65 122 157
309 346 475 480 l115 92 40 -34 c71 -60 168 -120 255 -156 163 -70 269 -87
511 -86 l185 1 215 -159 c268 -200 628 -472 694 -525 69 -55 196 -115 280
-132 140 -29 299 -7 445 60 191 87 387 279 475 464 88 186 41 347 -147 496
-113 89 -320 301 -559 569 -30 33 -86 96 -125 140 -39 43 -102 115 -140 159
-38 44 -71 82 -74 85 -3 3 -38 43 -79 90 -40 47 -85 98 -100 115 -14 16 -69
80 -122 142 l-97 112 24 98 c54 221 64 272 64 348 0 172 -60 316 -179 435 -42
41 -104 91 -139 111 l-62 36 33 44 c110 145 185 355 192 536 2 58 -1 85 -13
106 -30 50 -85 31 -142 -51 -18 -26 -56 -68 -84 -95 -51 -48 -184 -121 -253
-139 -69 -18 -203 -46 -251 -53 -26 -3 -59 -8 -73 -10 -14 -3 -62 10 -112 30
-48 18 -87 32 -87 29 0 -3 -8 0 -18 5 -16 8 -18 24 -16 138 1 127 -11 245 -41
378 -15 69 -44 165 -50 165 -1 0 -23 -37 -49 -83 -88 -156 -249 -346 -377
-443 l-45 -35 -200 -4 c-285 -4 -499 -42 -779 -136 -128 -44 -129 -44 -275
-110 -227 -102 -479 -259 -662 -410 -74 -62 -97 -72 -203 -94 -19 -4 -142 -46
-177 -60 -15 -6 -15 -2 3 45 10 28 17 63 14 78 -5 29 -38 62 -61 62 -13 0
-430 -95 -466 -106 -9 -2 4 17 29 43 102 108 161 206 209 348 36 106 42 273
14 382 -24 91 -64 174 -110 225 -31 35 -42 41 -85 45 -44 4 -54 1 -86 -26 -25
-21 -41 -46 -53 -84 -27 -85 -92 -204 -150 -277 -31 -38 -98 -100 -157 -145
-155 -117 -242 -188 -257 -207 -18 -25 -35 -23 -117 16 -142 67 -322 131 -471
167 -45 10 -124 39 -175 63 -340 158 -735 255 -1199 296 -184 16 -593 8 -793
-15 -537 -62 -1119 -226 -1639 -464 -26 -11 -49 -21 -52 -21 -15 0 -3 52 18
77 52 62 61 92 61 198 0 92 -3 106 -32 167 -28 59 -88 150 -125 189 -57 61
-125 148 -168 219 -29 47 -62 95 -73 108 -15 16 -17 22 -6 23 8 1 34 3 59 5
116 9 397 6 423 -5 l29 -11 -23 37 c-74 125 -207 250 -304 287 -18 7 -16 10
17 27 59 30 116 113 144 209 20 67 29 186 29 375 -1 151 -3 185 -18 212 -22
41 -54 63 -92 63 -61 0 -76 -32 -74 -147 3 -98 -8 -128 -48 -144 -42 -16 -86
5 -113 52 -27 49 -29 132 -6 248 18 94 18 206 -1 251 -41 99 -154 142 -222 84
-44 -37 -48 -77 -20 -192 32 -130 29 -181 -10 -214 -52 -42 -137 -6 -162 69
-10 32 -9 109 4 168 18 80 25 241 13 292 -8 36 -37 80 -60 91 -48 21 -114 -7
-143 -61 -23 -44 -23 -45 -27 -185 -3 -118 -5 -126 -33 -165 -48 -68 -116 -76
-152 -16 -28 45 -19 103 28 196 22 45 41 98 42 119 5 89 -75 159 -164 144z
m-10535 -13580 c15 -91 30 -185 33 -210 8 -59 65 -419 70 -445 3 -11 7 -38 10
-60 13 -91 20 -133 50 -316 3 -14 7 -41 9 -60 3 -19 8 -52 11 -74 4 -22 8 -51
10 -65 2 -14 11 -65 19 -115 9 -49 18 -108 21 -130 3 -22 7 -51 10 -65 2 -13
7 -42 10 -65 3 -22 8 -51 10 -65 3 -14 7 -38 9 -55 3 -16 12 -70 20 -120 8
-49 18 -112 21 -140 4 -27 8 -57 10 -65 2 -8 7 -33 10 -55 3 -23 7 -50 9 -62
3 -12 8 -43 12 -70 3 -26 8 -57 10 -68 2 -11 16 -94 29 -185 14 -91 27 -172
30 -180 2 -8 7 -35 10 -60 2 -25 7 -54 9 -65 2 -11 9 -56 16 -100 7 -44 14
-87 15 -97 2 -9 7 -38 11 -65 3 -26 8 -57 10 -68 2 -10 6 -37 9 -60 3 -22 10
-65 15 -95 9 -54 14 -82 25 -150 3 -19 7 -46 10 -60 2 -14 7 -45 10 -70 4 -25
13 -84 21 -133 8 -48 13 -91 10 -96 -5 -7 -68 -19 -206 -37 -19 -2 -53 -7 -75
-11 -22 -4 -44 -7 -50 -8 -13 -1 -115 -16 -135 -20 -8 -2 -51 -8 -95 -15 -44
-6 -91 -13 -105 -16 -72 -12 -130 -16 -131 -8 -4 39 -8 73 -12 94 -8 39 -16
91 -22 135 -3 22 -10 69 -16 105 -6 36 -13 74 -14 85 -2 11 -11 65 -19 120 -9
55 -19 116 -22 135 -3 19 -12 73 -19 120 -8 47 -19 117 -25 155 -5 39 -12 81
-14 95 -4 24 -8 48 -22 138 -3 20 -7 44 -9 52 -2 8 -7 38 -11 65 -3 28 -8 59
-10 70 -2 10 -6 37 -9 60 -3 22 -10 65 -15 95 -5 30 -12 71 -15 90 -3 19 -7
46 -10 60 -2 14 -7 43 -10 65 -3 22 -17 112 -31 200 -14 88 -27 171 -29 185
-10 62 -76 481 -85 535 -12 70 -17 105 -25 160 -3 22 -8 51 -10 65 -3 14 -8
42 -11 64 -3 21 -8 48 -10 60 -2 11 -7 39 -9 61 -3 22 -7 51 -10 65 -6 32 -11
63 -30 185 -8 55 -17 111 -19 125 -3 14 -12 70 -20 125 -9 55 -18 114 -21 130
-8 45 -14 86 -21 130 -3 22 -9 59 -14 83 -4 23 -3 43 1 43 5 1 12 2 17 3 4 1
32 6 62 10 30 4 62 9 70 11 8 2 35 6 60 10 25 3 56 8 70 10 14 2 57 9 95 15
39 6 88 14 110 17 22 2 85 12 140 21 55 10 116 17 135 17 l34 0 28 -165z
m18677 155 c9 -1 41 -6 71 -10 30 -4 62 -9 70 -10 8 -1 40 -6 70 -11 30 -4 57
-8 60 -9 3 -1 30 -5 60 -9 30 -5 62 -10 70 -11 8 -2 35 -6 60 -9 25 -3 54 -8
65 -10 11 -2 40 -7 65 -10 81 -12 100 -18 96 -25 -4 -6 -34 -185 -61 -366 -3
-22 -13 -78 -20 -125 -8 -47 -16 -101 -19 -120 -2 -19 -7 -46 -10 -60 -3 -14
-8 -47 -11 -75 -3 -27 -10 -68 -15 -90 -7 -35 -13 -70 -25 -165 -2 -14 -6 -36
-8 -50 -3 -14 -9 -47 -13 -75 -4 -27 -8 -55 -10 -62 -1 -6 -5 -30 -8 -53 -3
-22 -12 -80 -20 -128 -17 -102 -26 -156 -31 -197 -5 -33 -15 -99 -21 -130 -2
-10 -6 -37 -9 -60 -3 -22 -10 -62 -15 -90 -6 -27 -12 -68 -15 -90 -3 -22 -7
-51 -10 -65 -3 -14 -8 -44 -11 -66 -2 -23 -7 -52 -9 -65 -3 -13 -7 -41 -10
-64 -8 -54 -14 -90 -25 -155 -5 -30 -12 -73 -15 -95 -3 -22 -14 -92 -25 -155
-10 -63 -22 -135 -25 -160 -3 -25 -8 -52 -10 -60 -2 -8 -6 -35 -9 -60 -3 -25
-8 -55 -10 -66 -2 -12 -7 -39 -10 -60 -3 -22 -8 -50 -11 -64 -2 -14 -7 -43
-10 -65 -3 -22 -7 -51 -10 -65 -2 -14 -6 -41 -9 -60 -3 -19 -15 -93 -26 -165
-11 -71 -23 -146 -26 -165 -3 -19 -14 -87 -24 -150 -20 -115 -28 -173 -29
-199 -1 -13 -62 -12 -143 4 -60 11 -85 15 -128 20 -25 3 -67 10 -95 16 -27 5
-71 11 -96 14 -26 3 -57 8 -70 10 -12 3 -59 9 -103 15 -122 17 -150 22 -159
27 -5 3 -5 24 -2 47 4 22 9 55 11 71 2 17 6 41 9 55 2 14 7 43 10 65 3 23 7
50 9 60 4 20 26 163 31 200 2 11 6 34 9 50 2 17 7 48 11 70 3 23 7 52 10 65 3
13 7 42 10 65 3 22 8 51 10 65 3 14 7 39 9 55 11 71 58 362 62 385 2 14 9 56
14 94 6 38 12 78 15 90 5 24 14 84 21 136 2 19 8 58 14 85 5 28 16 99 25 159
9 59 18 116 20 125 1 9 6 38 9 65 4 27 9 52 11 55 1 3 6 35 10 71 4 36 8 67
10 70 2 3 6 25 9 50 3 25 8 54 10 65 2 11 7 40 11 65 3 25 9 59 11 75 3 17 7
41 9 55 2 14 6 41 9 60 4 19 8 49 10 65 2 17 9 57 15 90 13 75 18 108 26 165
3 25 8 56 10 70 5 26 10 56 20 124 4 21 8 47 10 56 2 10 7 40 11 67 3 26 8 57
10 68 2 11 7 40 10 65 3 25 8 54 10 65 2 11 6 34 9 50 3 17 7 44 10 60 3 17 8
49 11 71 2 23 6 50 8 60 2 11 7 39 11 64 4 25 9 52 10 60 1 8 8 55 15 103 l13
88 50 -6 c28 -4 57 -8 66 -10z"/>
</g>
</svg>
