<?xml version="1.0" standalone="no"?>
<!DOCTYPE svg PUBLIC "-//W3C//DTD SVG 20010904//EN"
 "http://www.w3.org/TR/2001/REC-SVG-20010904/DTD/svg10.dtd">
<svg version="1.0" xmlns="http://www.w3.org/2000/svg"
 width="3508.000000pt" height="3508.000000pt" viewBox="0 0 3508.000000 3508.000000"
 preserveAspectRatio="xMidYMid meet">
<metadata>
Created by potrace 1.11, written by Peter Selinger 2001-2013
</metadata>
<g transform="translate(0.000000,3508.000000) scale(0.100000,-0.100000)"
fill="#000000" stroke="none">
<path d="M18749 28707 c-18 -12 -44 -40 -57 -62 -19 -34 -22 -53 -21 -125 2
-124 2 -126 -32 -165 -36 -40 -69 -45 -100 -14 -25 25 -23 81 5 165 53 159
-111 261 -227 142 -28 -28 -33 -83 -18 -177 12 -79 12 -91 -3 -123 -19 -40
-56 -61 -90 -52 -26 6 -37 24 -61 100 -12 40 -23 55 -47 67 -62 30 -134 0
-183 -77 -44 -68 -58 -126 -52 -212 5 -89 12 -116 47 -191 38 -81 78 -139 143
-205 90 -92 168 -138 277 -164 62 -14 293 -12 373 4 l49 10 -43 -42 c-82 -80
-166 -233 -200 -364 -13 -51 -16 -55 -82 -93 -136 -80 -304 -216 -455 -368
-322 -324 -548 -721 -663 -1162 -31 -120 -49 -155 -77 -144 -33 12 -253 -63
-372 -128 -65 -35 -171 -98 -185 -109 -5 -5 -42 -32 -81 -61 -39 -29 -106 -83
-149 -122 -66 -59 -83 -70 -109 -67 -51 5 -372 87 -496 127 -512 165 -863 394
-1114 725 -202 267 -525 753 -804 1210 -52 85 -103 171 -114 190 -10 19 -23
42 -28 50 -19 29 -117 195 -124 210 -4 8 -12 24 -19 35 -161 269 -188 308
-253 370 -103 98 -267 168 -529 225 -74 17 -168 41 -207 56 -179 63 -381 36
-545 -73 -63 -41 -165 -141 -198 -193 -69 -107 -193 -189 -575 -378 -456 -226
-557 -288 -691 -424 -95 -96 -152 -175 -180 -248 -19 -50 -57 -263 -66 -366
-6 -74 21 -147 61 -166 17 -7 26 -19 26 -35 0 -12 0 -25 0 -28 0 -20 38 -95
59 -118 76 -84 268 -112 475 -71 257 51 349 57 576 38 199 -16 455 -11 530 10
126 35 167 37 155 9 -12 -30 -55 -225 -62 -283 -4 -30 -7 -100 -7 -155 1 -115
23 -181 77 -233 95 -92 284 -74 537 52 l90 45 15 -36 c8 -19 15 -38 15 -40 0
-3 6 -19 14 -36 22 -50 81 -234 140 -441 l53 -188 -77 -68 c-42 -38 -96 -91
-121 -120 -24 -29 -54 -64 -67 -79 -47 -53 -159 -229 -207 -324 l-49 -97 -45
6 c-26 3 -55 8 -66 10 -19 4 -221 38 -289 49 -17 3 -42 7 -56 10 -14 2 -45 7
-70 10 -25 3 -70 10 -100 15 -30 5 -71 11 -90 14 -19 3 -82 11 -140 20 -58 8
-125 17 -150 20 -25 3 -54 8 -65 10 -11 2 -51 7 -90 12 -38 4 -72 8 -75 9 -5
1 -111 13 -175 20 -22 2 -58 6 -80 9 -22 3 -67 8 -100 11 -33 3 -76 8 -95 10
-19 3 -62 7 -95 10 -33 3 -76 7 -95 10 -19 2 -69 7 -110 10 -41 3 -95 8 -120
10 -25 2 -81 7 -125 10 -44 4 -100 8 -124 10 -25 3 -85 7 -135 10 -50 3 -116
8 -146 10 -97 8 -173 14 -275 20 -55 3 -116 8 -135 10 -19 2 -76 7 -126 10
-50 4 -100 8 -110 10 -10 2 -29 4 -42 4 -22 1 -21 4 21 54 67 80 105 139 157
250 43 91 93 227 104 282 3 11 9 42 15 69 14 58 21 128 24 219 l2 67 -105 44
c-58 24 -136 51 -175 60 -116 26 -283 12 -390 -32 -81 -34 -203 -107 -266
-160 -82 -68 -175 -147 -179 -152 -12 -13 -127 -108 -150 -123 -36 -25 -47
-21 -55 21 -4 20 -24 90 -46 156 -21 65 -39 119 -39 121 0 2 12 6 28 10 39 9
162 83 199 120 88 88 147 194 184 330 17 65 22 111 23 240 2 293 -33 444 -98
419 -20 -8 -24 -22 -31 -117 -23 -302 -131 -545 -270 -608 -46 -21 -128 -24
-221 -8 -55 10 -69 17 -111 58 -274 269 -677 385 -1097 315 -58 -10 -166 -43
-228 -70 -72 -32 -206 -115 -233 -143 -11 -13 -26 -19 -44 -16 -95 16 -208 39
-216 45 -5 3 -32 15 -60 25 -133 48 -322 208 -423 357 -53 78 -132 231 -132
254 0 22 -37 36 -61 24 -19 -11 -20 -18 -15 -108 19 -362 255 -743 586 -947
25 -15 46 -29 48 -30 2 -1 -8 -27 -22 -56 -14 -30 -40 -96 -58 -146 l-33 -93
-50 26 c-54 28 -115 76 -229 178 -222 199 -375 288 -535 313 -144 22 -345 -17
-451 -88 -37 -25 -39 -121 -5 -294 43 -217 172 -469 311 -609 140 -141 342
-214 565 -204 l88 4 -2 -121 c-2 -116 -1 -122 30 -185 17 -36 35 -82 39 -103
5 -30 10 -36 24 -32 14 4 19 -2 24 -27 3 -18 8 -44 11 -58 24 -117 24 -443 0
-560 -3 -14 -10 -53 -16 -88 -12 -67 -29 -91 -156 -219 -44 -44 -58 -69 -53
-95 1 -2 -10 -34 -25 -71 -77 -205 -65 -424 36 -644 16 -35 29 -68 29 -73 0
-6 6 -10 14 -10 8 0 18 -10 22 -22 7 -23 45 -78 74 -108 34 -34 89 -70 175
-113 199 -100 420 -123 776 -81 103 12 100 12 115 -26 52 -143 193 -518 253
-673 81 -211 77 -195 86 -334 3 -57 8 -111 9 -120 2 -10 7 -49 11 -88 8 -86
12 -111 19 -150 3 -16 10 -61 16 -100 21 -136 81 -415 121 -562 97 -355 201
-618 385 -973 25 -48 131 -218 160 -257 13 -17 24 -34 24 -37 0 -3 6 -14 14
-23 8 -10 49 -62 91 -115 l76 -97 -15 -58 c-26 -105 -50 -237 -62 -348 -4 -33
-8 -67 -10 -75 -1 -8 -3 -31 -3 -51 l-1 -36 -102 -13 c-57 -7 -112 -14 -123
-16 -11 -2 -36 -6 -55 -9 -19 -2 -51 -7 -70 -9 -19 -3 -53 -8 -75 -11 -22 -3
-47 -7 -55 -10 -8 -2 -35 -6 -60 -9 -25 -3 -56 -8 -70 -11 -14 -3 -45 -8 -70
-11 -25 -3 -77 -11 -116 -18 l-72 -12 -26 161 c-14 88 -28 171 -30 185 -3 14
-10 61 -16 105 -7 44 -14 87 -15 96 -2 9 -6 34 -9 55 -4 22 -13 82 -22 134 -8
52 -17 111 -20 130 -2 19 -8 53 -11 75 -4 22 -8 45 -8 50 -1 6 -7 42 -13 80
-13 74 -72 446 -77 480 -8 56 -73 463 -80 500 -8 45 -36 92 -77 131 -52 50
-525 427 -913 728 -154 120 -289 225 -300 234 -97 81 -349 262 -385 276 -68
27 -186 32 -262 11 -125 -35 -198 -90 -268 -203 -22 -37 -46 -76 -53 -86 -7
-11 -32 -52 -56 -90 -163 -261 -532 -870 -674 -1111 -55 -93 -107 -181 -116
-195 -21 -33 -38 -63 -72 -130 -34 -66 -35 -127 -2 -275 4 -16 8 -34 9 -40 4
-23 76 -371 79 -385 2 -8 13 -60 24 -115 11 -55 38 -188 61 -295 37 -177 63
-305 150 -725 16 -77 57 -273 90 -435 34 -162 74 -358 90 -435 16 -77 41 -196
55 -265 15 -69 28 -135 31 -147 5 -24 103 -498 109 -523 1 -8 17 -85 35 -170
17 -85 33 -162 35 -170 6 -27 86 -415 91 -440 4 -21 9 -47 20 -95 3 -16 10
-51 38 -190 15 -71 31 -146 36 -165 5 -19 11 -48 14 -65 5 -36 31 -161 85
-420 34 -164 69 -330 86 -416 3 -13 12 -55 20 -94 18 -86 135 -652 140 -680 5
-23 65 -313 70 -335 2 -8 6 -26 9 -40 3 -14 8 -37 11 -52 3 -16 7 -40 10 -55
3 -16 8 -39 11 -53 7 -31 4 -14 58 -280 26 -124 48 -232 51 -240 2 -8 7 -28
10 -45 6 -35 4 -27 44 -220 17 -82 33 -160 36 -173 2 -13 6 -31 9 -40 3 -9 8
-33 11 -52 5 -36 12 -70 20 -105 10 -48 76 -363 81 -389 3 -16 7 -32 9 -35 2
-4 6 -27 10 -51 3 -25 10 -61 15 -80 5 -19 11 -46 14 -60 7 -41 53 -265 87
-425 17 -82 33 -159 35 -170 2 -11 8 -40 14 -65 9 -43 78 -374 86 -415 2 -11
6 -31 9 -45 3 -14 7 -34 9 -45 5 -26 45 -214 52 -246 3 -13 7 -35 10 -49 2
-14 11 -56 19 -95 8 -38 17 -81 19 -95 3 -14 5 -25 6 -25 1 0 3 -11 6 -25 2
-14 11 -56 19 -95 8 -38 17 -86 21 -105 8 -45 9 -51 17 -75 3 -11 8 -36 11
-55 3 -19 14 -75 25 -125 11 -49 22 -101 25 -115 6 -31 23 -116 31 -150 3 -14
7 -36 10 -50 2 -14 14 -70 25 -125 21 -98 26 -122 34 -167 2 -13 11 -54 20
-93 22 -99 65 -305 70 -335 2 -14 15 -79 29 -145 14 -66 28 -133 31 -150 3
-16 12 -61 21 -100 8 -38 26 -125 40 -192 31 -148 44 -181 93 -235 63 -70 191
-111 276 -87 18 5 46 11 62 13 16 2 54 9 84 15 30 6 69 14 85 17 17 3 95 18
175 34 151 30 280 55 365 70 50 9 297 55 345 64 49 10 215 38 237 41 12 2 36
6 53 10 17 4 41 8 53 10 12 1 49 7 82 13 71 13 106 19 160 27 22 4 47 8 55 10
8 2 35 7 60 10 109 16 248 44 280 58 61 27 118 87 145 152 24 59 27 127 11
225 -3 14 -7 43 -11 65 -3 22 -10 63 -15 90 -5 28 -12 68 -15 90 -3 23 -7 52
-10 65 -3 14 -7 43 -10 65 -3 22 -7 51 -10 65 -2 13 -7 42 -10 65 -3 22 -11
67 -16 100 -6 33 -12 69 -14 80 -6 46 -16 112 -20 135 -3 14 -7 41 -10 60 -3
19 -7 46 -10 60 -2 14 -7 43 -10 65 -3 23 -7 52 -10 65 -3 14 -12 70 -20 125
-8 55 -17 111 -19 125 -28 165 -48 302 -44 306 6 5 32 11 93 19 22 4 52 8 68
11 15 2 42 6 60 9 17 3 43 7 57 10 14 3 43 7 65 10 22 2 49 7 60 9 11 2 43 7
70 10 54 7 96 14 135 21 14 2 45 7 70 10 25 3 62 8 83 11 35 5 37 4 38 -23 0
-15 2 -37 5 -48 2 -11 6 -33 9 -50 2 -16 11 -68 19 -115 8 -47 18 -105 21
-130 40 -287 79 -430 165 -601 210 -415 647 -713 1110 -754 74 -7 263 -7 300
-1 41 8 87 14 255 36 88 12 171 23 185 25 14 2 50 6 80 10 30 4 66 8 80 10 14
2 50 7 80 10 30 4 62 9 70 10 8 2 42 6 75 9 58 6 85 10 178 21 45 6 81 10 167
20 30 3 71 8 90 10 69 9 116 14 185 20 39 4 77 8 85 10 8 3 50 7 93 10 43 4
88 8 100 11 12 2 54 6 92 10 39 3 84 7 100 9 17 1 64 6 105 9 41 4 86 9 100
11 14 2 59 7 100 10 41 3 96 8 123 10 107 11 145 15 212 20 65 5 142 11 240
20 22 2 81 6 130 10 50 3 108 8 130 10 22 3 81 7 130 10 50 3 115 8 145 10 30
2 98 7 150 10 52 3 124 8 160 10 185 12 233 15 321 20 52 3 138 8 190 10 52 3
141 7 199 10 200 10 306 15 460 20 85 3 205 7 265 10 736 27 2473 27 3140 0
55 -2 174 -7 265 -10 91 -4 194 -8 230 -10 36 -1 133 -6 215 -9 83 -4 175 -9
205 -11 30 -2 118 -7 195 -11 77 -4 156 -8 175 -9 19 -2 82 -6 140 -9 201 -12
476 -32 580 -41 25 -2 83 -7 130 -10 47 -3 105 -7 130 -10 25 -2 79 -7 120
-10 41 -3 95 -8 120 -10 25 -2 77 -7 115 -10 39 -3 88 -8 110 -10 22 -2 74 -7
115 -10 41 -3 86 -8 100 -10 14 -2 59 -6 100 -9 41 -4 86 -8 100 -10 14 -3 59
-7 100 -11 41 -4 88 -8 103 -10 15 -2 60 -6 100 -10 40 -3 79 -8 87 -10 8 -2
49 -7 90 -10 41 -3 82 -8 90 -10 8 -2 49 -7 90 -10 41 -3 82 -8 90 -10 8 -2
42 -7 75 -10 66 -6 136 -14 175 -20 14 -2 52 -7 85 -10 33 -4 71 -8 85 -10 47
-7 105 -15 150 -20 47 -5 188 -24 230 -30 14 -2 50 -7 80 -10 30 -4 62 -9 70
-10 8 -2 42 -6 75 -10 32 -3 62 -8 65 -10 9 -5 178 -18 240 -18 60 0 196 11
220 18 8 2 31 6 50 9 19 3 76 17 125 31 387 112 710 391 881 760 37 80 88 236
98 300 4 21 8 47 11 59 2 12 7 39 10 61 3 22 12 78 20 125 7 47 16 101 19 120
3 19 13 84 22 143 l17 108 31 -5 c59 -9 181 -26 221 -32 22 -2 65 -9 95 -14
30 -5 75 -12 100 -15 39 -5 132 -20 265 -41 22 -3 47 -8 55 -9 8 -2 19 -4 23
-4 8 -1 5 -47 -7 -103 -3 -12 -8 -45 -11 -72 -3 -27 -8 -52 -9 -55 -2 -3 -6
-28 -10 -56 -3 -27 -8 -61 -10 -75 -16 -92 -39 -230 -42 -255 -3 -26 -10 -74
-19 -125 -1 -8 -6 -37 -10 -65 -5 -27 -9 -52 -10 -55 0 -3 -5 -32 -9 -65 -4
-32 -10 -68 -12 -80 -2 -11 -13 -78 -25 -150 -11 -71 -22 -141 -24 -155 -3
-14 -7 -43 -10 -65 -3 -22 -10 -62 -15 -90 -5 -27 -12 -70 -15 -95 -4 -25 -11
-67 -16 -94 -20 -106 -6 -180 48 -258 48 -70 109 -106 208 -122 17 -3 125 -21
240 -41 116 -19 224 -37 240 -40 80 -13 91 -15 260 -46 66 -12 129 -23 141
-24 11 -2 45 -8 75 -14 30 -6 68 -13 84 -16 17 -3 43 -7 59 -11 61 -11 392
-73 416 -78 14 -2 59 -11 100 -20 41 -8 89 -18 105 -21 17 -2 41 -7 55 -10 14
-3 61 -12 105 -21 44 -9 96 -19 115 -23 55 -11 136 -4 183 17 85 37 156 125
170 207 3 17 10 50 15 75 6 25 13 56 16 70 2 14 14 70 26 125 11 55 23 114 26
130 2 17 7 37 9 45 2 8 6 26 9 40 5 26 45 221 52 255 3 11 11 52 19 90 12 62
33 164 116 560 12 55 23 109 25 120 7 35 11 54 67 325 31 146 58 276 61 290 2
14 18 92 35 175 18 82 33 159 36 170 2 11 18 88 35 170 17 83 32 159 34 170 3
11 10 43 16 70 7 28 14 59 15 70 2 11 12 65 24 120 11 55 22 111 25 125 3 14
16 79 31 145 14 66 32 154 40 195 8 41 26 127 40 190 20 95 110 528 120 580 2
8 12 60 24 115 11 55 23 111 25 125 3 14 7 36 10 50 3 14 13 59 21 100 8 41
17 84 19 95 34 161 47 225 52 250 3 17 10 48 16 70 6 22 12 54 15 70 2 17 20
104 39 195 19 91 39 185 44 210 5 25 12 56 15 70 17 82 26 128 30 150 2 14 9
45 15 70 5 25 12 56 14 70 2 14 21 102 40 195 20 94 39 184 42 200 3 17 11 58
19 93 8 34 17 77 20 95 4 17 24 118 46 222 22 105 42 202 44 218 3 15 12 60
21 100 8 39 17 81 20 92 7 34 64 309 68 330 8 36 48 230 52 250 2 11 6 31 9
45 3 14 7 34 9 45 3 11 16 79 31 150 15 72 29 141 31 154 3 12 11 51 19 85 8
33 16 72 18 86 3 14 14 68 25 120 12 52 23 106 26 120 2 14 14 71 25 128 11
56 23 115 26 131 3 16 12 56 19 88 8 32 17 72 20 88 2 17 16 86 30 155 29 135
234 1122 240 1155 5 23 92 448 105 510 11 52 72 342 162 780 11 55 22 107 24
115 17 81 83 402 91 438 3 15 23 113 46 217 61 287 60 315 -19 443 -18 29 -33
54 -33 57 0 2 -38 67 -85 145 -47 78 -85 143 -85 145 0 2 -18 31 -40 64 -22
33 -40 62 -40 64 0 5 -219 367 -321 533 -42 66 -78 127 -82 135 -4 7 -15 26
-25 41 -9 15 -46 74 -81 130 -35 57 -78 126 -96 153 -17 28 -46 73 -64 102
-97 155 -288 227 -474 178 -66 -17 -82 -26 -192 -110 -117 -90 -560 -431 -582
-449 -10 -8 -144 -114 -298 -235 -154 -121 -286 -225 -293 -232 -8 -6 -73 -59
-145 -117 -137 -110 -158 -130 -182 -173 -12 -23 -34 -125 -50 -234 -6 -41 -9
-59 -25 -155 -5 -30 -12 -75 -15 -100 -3 -25 -8 -52 -10 -60 -2 -8 -7 -40 -10
-70 -4 -30 -9 -58 -10 -61 -2 -3 -7 -28 -10 -55 -6 -48 -30 -204 -61 -394 -9
-52 -17 -107 -20 -122 -8 -52 -13 -83 -33 -208 -11 -69 -22 -141 -25 -160 -3
-19 -15 -93 -26 -165 -12 -71 -24 -147 -27 -168 -2 -21 -6 -44 -7 -50 -2 -7
-6 -34 -11 -61 l-8 -48 -51 6 c-63 7 -106 14 -171 26 -27 5 -70 12 -95 14 -25
3 -54 7 -65 10 -11 2 -42 7 -70 10 -70 10 -114 17 -137 21 -11 3 -46 7 -77 11
-31 3 -59 8 -62 10 -3 1 -32 6 -65 9 -32 4 -62 10 -67 14 -4 4 -10 30 -12 57
-13 136 -15 152 -30 239 -3 17 -8 46 -11 65 -3 19 -21 96 -39 170 -138 553
-434 1073 -864 1520 -65 68 -81 90 -77 110 2 14 18 87 35 164 32 137 74 380
86 486 3 30 8 71 10 90 7 54 14 171 21 323 l5 137 428 713 c235 391 441 732
457 757 173 267 383 501 638 710 l120 98 65 -52 c123 -98 239 -154 406 -197
79 -20 116 -23 306 -25 l217 -2 58 -43 c244 -179 788 -590 829 -626 58 -51
206 -125 285 -144 79 -19 241 -16 320 6 202 57 384 185 525 370 133 174 166
326 100 460 -34 70 -90 132 -190 210 -115 90 -270 253 -604 630 -68 77 -140
158 -160 180 -20 22 -63 71 -96 110 -33 38 -67 76 -75 85 -33 35 -315 363
-321 374 -4 6 10 79 32 161 60 234 65 321 28 460 -11 40 -57 143 -81 180 -45
68 -209 208 -267 226 -10 4 -7 12 11 34 90 110 156 266 193 450 12 59 13 178
2 202 -13 29 -51 40 -82 23 -13 -7 -44 -40 -69 -74 -52 -70 -73 -90 -138 -134
-66 -45 -193 -101 -238 -104 -3 0 -15 -4 -27 -9 -13 -5 -44 -11 -70 -15 -27
-3 -51 -8 -54 -10 -3 -2 -33 -6 -65 -9 -32 -4 -66 -8 -74 -10 -8 -3 -62 13
-120 34 l-105 39 -1 154 c0 164 -12 251 -51 393 -13 50 -27 100 -30 113 -5 20
-11 13 -44 -48 -89 -164 -211 -313 -369 -451 -58 -50 -62 -51 -223 -51 -83 -1
-181 -4 -217 -8 -36 -5 -92 -11 -125 -15 -33 -3 -121 -20 -195 -36 -417 -92
-843 -299 -1205 -586 -88 -70 -109 -81 -175 -98 -66 -16 -174 -50 -222 -70
-15 -6 -15 -2 3 45 32 85 3 146 -65 134 -17 -3 -42 -7 -56 -9 -14 -2 -109 -24
-212 -48 -104 -24 -188 -43 -188 -42 0 1 18 21 40 46 174 191 242 363 235 593
-4 152 -60 301 -141 377 -21 19 -36 24 -80 24 -71 0 -94 -24 -144 -146 -77
-193 -149 -280 -350 -430 -63 -47 -142 -109 -174 -137 -39 -34 -63 -49 -70
-43 -18 15 -194 91 -295 127 -102 37 -215 70 -271 79 -19 3 -84 28 -143 56
-59 27 -110 49 -113 49 -3 0 -22 7 -42 16 -65 28 -75 32 -187 68 -213 67 -433
117 -635 142 -30 4 -66 8 -80 10 -119 15 -212 19 -450 19 -151 0 -318 -4 -370
-8 -93 -8 -300 -33 -350 -42 -14 -3 -41 -7 -60 -10 -304 -50 -819 -196 -1057
-301 -17 -8 -34 -14 -37 -14 -3 0 -74 -29 -157 -65 -83 -36 -153 -65 -155 -65
-14 0 0 53 20 77 64 76 82 160 60 269 -23 107 -59 168 -194 330 -116 140 -110
132 -110 140 0 10 -92 148 -104 156 -7 5 -7 8 -1 9 114 14 467 14 492 1 21
-11 21 -11 10 10 -60 111 -158 213 -260 272 l-68 39 38 21 c66 37 129 140 148
241 15 79 20 165 20 335 0 177 -1 187 -23 223 -13 20 -32 42 -42 47 -32 17
-78 12 -100 -12 -18 -20 -21 -34 -19 -103 2 -117 1 -124 -26 -151 -42 -41
-107 -18 -142 51 -16 29 -20 132 -8 185 43 198 31 304 -44 375 -28 26 -39 29
-92 30 -56 0 -63 -2 -91 -34 -28 -32 -30 -38 -25 -90 3 -31 12 -77 21 -103 34
-99 25 -177 -26 -208 -53 -32 -125 6 -149 78 -10 31 -7 161 5 180 10 17 18 96
17 185 -1 76 -5 106 -20 136 -50 97 -180 60 -207 -59 -4 -19 -8 -82 -9 -140
-2 -120 -16 -165 -63 -199 -39 -27 -74 -27 -109 3 -42 36 -37 106 16 213 62
125 55 194 -24 243 -45 28 -112 27 -156 -3z m-10487 -13497 c9 -58 19 -123 23
-145 7 -56 24 -160 35 -225 12 -67 41 -251 76 -485 3 -16 7 -37 9 -45 2 -8 6
-35 9 -60 3 -25 8 -58 11 -75 5 -30 14 -83 36 -225 16 -97 16 -97 24 -150 3
-25 10 -70 15 -100 5 -30 12 -71 15 -90 3 -19 10 -60 15 -90 9 -58 19 -118 25
-160 2 -14 8 -54 14 -90 6 -36 13 -83 16 -105 3 -22 8 -52 11 -67 3 -15 7 -39
9 -55 2 -15 9 -59 15 -98 6 -38 13 -83 16 -100 2 -16 7 -42 10 -57 3 -15 7
-39 9 -55 4 -30 22 -146 31 -203 14 -89 46 -288 50 -310 2 -14 6 -45 10 -70 3
-25 7 -52 9 -60 3 -8 7 -33 10 -55 3 -22 10 -65 15 -95 6 -30 12 -68 14 -85
11 -78 27 -181 31 -195 2 -8 6 -35 9 -60 4 -25 8 -56 10 -70 14 -79 18 -109
19 -140 2 -31 -1 -35 -33 -41 -19 -4 -60 -10 -90 -14 -30 -3 -67 -8 -82 -11
-16 -2 -43 -6 -60 -9 -18 -3 -44 -7 -58 -10 -14 -2 -45 -7 -70 -10 -25 -3 -88
-13 -140 -21 -52 -9 -108 -17 -123 -19 -77 -11 -112 -17 -119 -21 -11 -7 -16
9 -28 82 -6 38 -13 81 -15 97 -10 55 -14 83 -20 127 -4 25 -17 110 -30 190
-13 80 -26 163 -30 185 -3 23 -7 52 -10 65 -3 13 -7 42 -10 65 -3 22 -10 65
-15 95 -16 93 -19 113 -25 155 -4 22 -24 153 -46 290 -22 138 -42 261 -44 275
-6 46 -17 115 -20 130 -2 8 -8 51 -15 95 -7 44 -14 89 -16 100 -2 10 -6 37 -9
60 -3 22 -10 65 -15 95 -5 30 -12 72 -16 94 -3 21 -7 48 -10 59 -2 12 -6 39
-9 62 -3 22 -15 94 -25 160 -11 66 -22 138 -25 160 -3 22 -8 51 -10 65 -3 14
-7 39 -9 55 -3 17 -12 75 -21 130 -9 55 -18 116 -21 135 -3 19 -17 105 -30
190 -14 85 -27 168 -29 183 -2 16 -6 40 -9 55 -3 15 -8 45 -11 67 -3 22 -15
95 -26 163 -11 67 -23 141 -26 165 -4 23 -7 60 -8 81 0 31 4 39 20 42 22 3 75
11 115 18 14 3 59 10 100 16 41 6 87 13 101 16 14 2 41 6 60 8 19 3 68 10 109
16 41 6 93 13 115 16 22 3 56 9 75 13 19 4 48 7 65 7 l30 -1 17 -105z m18653
100 c33 -5 80 -12 105 -15 25 -3 86 -13 135 -20 50 -8 110 -17 135 -20 25 -3
52 -7 60 -10 8 -2 35 -6 60 -9 25 -3 56 -8 70 -11 14 -3 43 -8 65 -10 81 -10
80 -10 79 -46 0 -29 -15 -139 -29 -219 -15 -91 -35 -212 -40 -250 -3 -25 -8
-52 -10 -60 -4 -13 -7 -34 -20 -127 -5 -39 -14 -99 -25 -163 -18 -104 -19
-115 -25 -155 -3 -22 -10 -65 -15 -95 -5 -30 -11 -68 -14 -85 -3 -16 -8 -48
-11 -70 -4 -22 -8 -51 -10 -65 -2 -14 -15 -95 -29 -180 -26 -162 -37 -235 -41
-260 -1 -8 -5 -35 -9 -60 -4 -25 -10 -58 -12 -75 -2 -16 -6 -41 -9 -55 -7 -36
-12 -72 -30 -190 -8 -58 -17 -112 -20 -120 -2 -8 -6 -37 -10 -65 -3 -27 -8
-57 -10 -65 -2 -8 -6 -35 -9 -60 -3 -25 -8 -56 -11 -70 -3 -14 -7 -43 -10 -65
-3 -22 -7 -51 -10 -65 -2 -14 -7 -38 -9 -55 -3 -16 -8 -46 -11 -65 -7 -39 -33
-208 -40 -255 -6 -38 -9 -61 -35 -220 -12 -71 -23 -141 -25 -155 -2 -14 -8
-54 -14 -90 -6 -36 -13 -83 -16 -105 -8 -49 -13 -82 -19 -115 -3 -14 -8 -45
-11 -70 -15 -111 -31 -185 -41 -183 -6 1 -33 5 -60 9 -27 3 -56 8 -66 9 -9 2
-38 7 -65 11 -26 3 -57 8 -68 10 -27 5 -97 15 -195 29 -25 4 -56 8 -70 11 -14
2 -56 9 -95 14 -38 6 -79 12 -90 15 -11 2 -33 4 -49 4 -28 1 -29 1 -22 49 3
26 8 58 11 72 2 14 6 41 9 60 2 19 9 62 15 95 6 33 13 76 16 95 3 19 7 46 10
60 2 14 7 45 10 70 3 25 8 52 10 60 2 8 6 35 9 60 3 25 8 55 10 66 2 12 7 39
10 60 4 22 11 64 16 94 5 30 12 75 15 100 3 25 8 52 10 60 2 8 7 40 10 70 4
30 8 57 10 60 2 3 6 28 9 55 4 28 18 118 31 200 13 83 26 166 29 185 3 19 8
46 10 60 5 25 12 70 21 138 3 20 10 60 15 87 5 28 12 68 15 90 3 23 7 50 9 60
2 11 7 42 10 68 4 27 9 57 11 66 2 10 6 42 10 72 4 30 8 56 10 59 2 3 6 26 9
50 3 25 7 54 10 65 2 11 6 41 10 66 4 25 9 57 11 70 7 42 27 163 31 194 2 17
7 46 10 65 4 19 8 48 10 63 2 16 13 82 24 147 11 65 23 139 26 163 2 25 7 56
9 68 3 13 7 35 9 49 3 14 8 43 11 65 3 22 12 83 21 135 19 119 22 133 30 195
3 28 7 52 9 55 2 3 6 30 10 60 3 30 8 62 10 70 2 8 7 35 10 60 7 47 12 60 23
60 4 0 34 -4 67 -10z"/>
</g>
</svg>
